{"title":"Frank Ocean - Pyramids {M4A+MP4} (1080p) x264 [VX] [P2PDL]","uid":7692350,"size":83307508,"categoryP":"video","categoryS":"music_videos","magnet":"?xt=urn:btih:c43ad431ea67da1e0ba978886d010e837114429d&amp;dn=Frank+Ocean+-+Pyramids+%7BM4A%2BMP4%7D+%281080p%29+x264+%5BVX%5D+%5BP2PDL%5D&amp;tr=udp%3A%2F%2Ftracker.openbittorrent.com%3A80&amp;tr=udp%3A%2F%2Fopen.demonii.com%3A1337&amp;tr=udp%3A%2F%2Ftracker.coppersurfer.tk%3A6969&amp;tr=udp%3A%2F%2Fexodus.desync.com%3A6969","seeders":1,"leechers":3,"uploader":"Vitamin_X","files":-1,"time":1349274422,"description":"Cover:  &lt;a href=&quot;\nhttp://www.shotpix.com/images/31733502226375364721.jpg&quot; rel=&quot;nofollow&quot; target=&quot;_NEW&quot;&gt;\nhttp://www.shotpix.com/images/31733502226375364721.jpg&lt;/a&gt;\n\n\nRelease Title: Frank Ocean - Pyramids (2012)\n\nMusic video by Frank Ocean performing Pyramids (Explicit). (C) 2012 The Island Def Jam Music Group\n\n                         1080p Full HD MP4 Video\n                                   +\n                          96 Kbps/VBR M4A Audio\n\n\nSing Along!\nEnglish subtitles included.\n\n\n\nGeneral\nFormat                         : MPEG-4\nFormat profile                 : Base Media / Version 2\nCodec ID                       : mp42\nFile size                      : 72.1 MiB\nDuration                       : 7mn 57s\nOverall bit rate mode          : Variable\nOverall bit rate               : 1 268 Kbps\n\n\nVideo\nID                             : 1\nFormat                         : AVC\nFormat/Info                    : Advanced Video Codec\nBit rate mode                  : Variable\nBit rate                       : 1 136 Kbps\nWidth                          : 1 920 pixels\nHeight                         : 764 pixels\nDisplay aspect ratio           : 2.513\nFrame rate mode                : Variable\nFrame rate                     : 23.976 fps\nStream size                    : 64.6 MiB (90%)\nWriting library                : x264 core 125\n\n\nAudio\nID                             : 2\nFormat                         : AAC\nFormat/Info                    : Advanced Audio Codec\nFormat profile                 : LC\nCodec ID                       : 40\nDuration                       : 7mn 57s\nBit rate mode                  : Variable\nBit rate                       : 126 Kbps\nChannel(s)                     : 2 channels\nChannel positions              : Front: L R\nSampling rate                  : 48.0 KHz\nStream size                    : 7.16 MiB (10%)\n\nSubtitle                       : Yes (English)\n\n\n\n\nScreens:\n\n &lt;a href=&quot;\nhttp://www.shotpix.com/images/69807741563824852883.jpg&quot; rel=&quot;nofollow&quot; target=&quot;_NEW&quot;&gt;\nhttp://www.shotpix.com/images/69807741563824852883.jpg&lt;/a&gt; &lt;a href=&quot;\nhttp://www.shotpix.com/images/05165004545591334371.jpg&quot; rel=&quot;nofollow&quot; target=&quot;_NEW&quot;&gt;\nhttp://www.shotpix.com/images/05165004545591334371.jpg&lt;/a&gt;\n\n\n\nThumbs:\n &lt;a href=&quot;\nhttp://www.shotpix.com/images/70657237086851825332.jpg&quot; rel=&quot;nofollow&quot; target=&quot;_NEW&quot;&gt;\nhttp://www.shotpix.com/images/70657237086851825332.jpg&lt;/a&gt;\n\n\n------------------------------------------------------------------------\n\n\nNotes:\n\n* Best played on VLC Media Player.\n* Install shark007 codecs in case of any kind of problem in playback (For non-VLC Media Player users).\n* Alternatively, install Core AVC codecs, the fastest decoder that there is coupled with Community Center Codec Pack and play on Windows Media Player Classic.\n* Read NFO\n* Help in seeding this torrent as much as you can. \n\n\n\nGreets to: srkfan, VYTO, MgB, staff members at ExtraTorrent, TPB,KAT, 1337x, PublicHD, Ahashare,\nSilverTorrent, TorrentMafia, P2PDL, and all others\n\n\nEncoder Notes: Looking For Early Access To Anything You Can Provide DVDScr, R5, DVDRips, BluRay, Direct Audio, Early Music\nReleases, Seedboxes, Links, Dedicated Servers anything u can provide, Advance / Promo CDs/DVDs. If You Got anything to\noffer contact me at &quot;&lt;a class=&quot;__cf_email__&quot; href=&quot;/cdn-cgi/l/email-protection&quot; data-cfemail=&quot;3e5d51504a5f5d4a7e4a57504753105b4b&quot;&gt;[email&amp;#160;protected]&lt;/a&gt;&lt;script cf-hash='f9e31' type=&quot;text/javascript&quot;&gt;\n/* &lt;![CDATA[ */!function(){try{var t=&quot;currentScript&quot;in document?document.currentScript:function(){for(var t=document.getElementsByTagName(&quot;script&quot;),e=t.length;e--;)if(t[e].getAttribute(&quot;cf-hash&quot;))return t[e]}();if(t&amp;&amp;t.previousSibling){var e,r,n,i,c=t.previousSibling,a=c.getAttribute(&quot;data-cfemail&quot;);if(a){for(e=&quot;&quot;,r=parseInt(a.substr(0,2),16),n=2;a.length-n;n+=2)i=parseInt(a.substr(n,2),16)^r,e+=String.fromCharCode(i);e=document.createTextNode(e),c.parentNode.replaceChild(e,c)}}}catch(u){}}();/* ]]&gt; */&lt;/script&gt;&quot;\n\n\nFacebook Fan Page: http:// www . facebook . com / p2pdl\n\n                                               Enjoy!","torrent":{"xt":"urn:btih:c43ad431ea67da1e0ba978886d010e837114429d","amp;dn":"Frank+Ocean+-+Pyramids+%7BM4A%2BMP4%7D+%281080p%29+x264+%5BVX%5D+%5BP2PDL%5D","amp;tr":["udp%3A%2F%2Ftracker.openbittorrent.com%3A80","udp%3A%2F%2Fopen.demonii.com%3A1337","udp%3A%2F%2Ftracker.coppersurfer.tk%3A6969","udp%3A%2F%2Fexodus.desync.com%3A6969"],"infoHash":"c43ad431ea67da1e0ba978886d010e837114429d","infoHashBuffer":{"type":"Buffer","data":[196,58,212,49,234,103,218,30,11,169,120,136,109,1,14,131,113,20,66,157]},"announce":[],"urlList":[]}}